<?xml version="1.0" encoding="UTF-8" standalone="no"?>
<svg
   xmlns:dc="http://purl.org/dc/elements/1.1/"
   xmlns:cc="http://creativecommons.org/ns#"
   xmlns:rdf="http://www.w3.org/1999/02/22-rdf-syntax-ns#"
   xmlns:svg="http://www.w3.org/2000/svg"
   xmlns="http://www.w3.org/2000/svg"
   xmlns:sodipodi="http://sodipodi.sourceforge.net/DTD/sodipodi-0.dtd"
   xmlns:inkscape="http://www.inkscape.org/namespaces/inkscape"
   width="80.550781pt"
   height="113.38672pt"
   viewBox="0 0 80.550784 113.38672"
   version="1.2"
   id="svg15"
   sodipodi:docname="js-html5-logo.svg"
   inkscape:version="0.92.4 5da689c313, 2019-01-14">
  <metadata
     id="metadata21">
    <rdf:RDF>
      <cc:Work
         rdf:about="">
        <dc:format>image/svg+xml</dc:format>
        <dc:type
           rdf:resource="http://purl.org/dc/dcmitype/StillImage" />
        <dc:title></dc:title>
      </cc:Work>
    </rdf:RDF>
  </metadata>
  <defs
     id="defs19" />
  <sodipodi:namedview
     pagecolor="#ffffff"
     bordercolor="#666666"
     borderopacity="1"
     objecttolerance="10"
     gridtolerance="10"
     guidetolerance="10"
     inkscape:pageopacity="0"
     inkscape:pageshadow="2"
     inkscape:window-width="1920"
     inkscape:window-height="1015"
     id="namedview17"
     showgrid="false"
     inkscape:zoom="1.2488359"
     inkscape:cx="-120.06028"
     inkscape:cy="75.590128"
     inkscape:window-x="0"
     inkscape:window-y="0"
     inkscape:window-maximized="1"
     inkscape:current-layer="surface579"
     fit-margin-top="0"
     fit-margin-left="0"
     fit-margin-right="0"
     fit-margin-bottom="0" />
  <g
     id="surface579"
     transform="translate(-30.589844,-14.171875)">
    <path
       style="fill:#e6a128;fill-opacity:1;fill-rule:nonzero;stroke:none"
       d="M 111.14063,36.394531 H 30.589844 l 7.546875,81.886719 32.730469,9.27734 32.714842,-9.27734 z m 0,0"
       id="path2"
       inkscape:connector-curvature="0" />
    <path
       style="fill:#f0bd21;fill-opacity:1;fill-rule:nonzero;stroke:none"
       d="M 70.867188,43.066406 V 120.625 l 26.5,-7.51172 6.453122,-70.046874 z m 0,0"
       id="path4"
       inkscape:connector-curvature="0" />
    <path
       style="fill:#ffffff;fill-opacity:1;fill-rule:nonzero;stroke:none"
       d="M 91.953125,53.113281 H 51.1875 l -2.832031,30.660157 0.05859,-0.191407 h 34.62891 L 81.910156,96.550781 70.867188,99.734375 59.652344,96.503906 58.980469,88.652344 H 48.800781 l 1.453125,15.687496 20.613282,5.85157 20.609374,-5.85157 2.839844,-30.781246 H 57.574219 l 0.46875,-10.265625 h 25.5 l 0.375,5.875 h 10.273437 z m 0,0"
       id="path6"
       inkscape:connector-curvature="0" />
    <path
       style="fill:#ebebeb;fill-opacity:1;fill-rule:nonzero;stroke:none"
       d="M 58.980469,88.652344 H 48.800781 l 1.453125,15.687496 20.613282,5.83985 V 99.734375 L 59.652344,96.503906 Z M 70.867188,53.113281 H 51.1875 l -2.832031,30.660157 0.05859,-0.191407 H 70.867188 V 73.558594 h -11.875 l 0.464843,-10.265625 h 11.410157 z m 0,0"
       id="path8"
       inkscape:connector-curvature="0" />
    <path
       style="fill:#211e1e;fill-opacity:1;fill-rule:nonzero;stroke:none"
       d="m 63.027344,24.316406 h -7.164063 v 5.144532 H 68.160156 V 14.171875 h -5.132812 z m 0,0"
       id="path10"
       inkscape:connector-curvature="0" />
    <path
       style="fill:#211e1e;fill-opacity:1;fill-rule:nonzero;stroke:none"
       d="M 85.867188,14.25 H 73.375 v 5.355469 c 1.667969,1.671875 2.542969,2.46875 4.960938,4.886719 -1.414063,0 -4.960938,0.0078 -4.960938,0.0078 V 29.3828 h 12.492188 v -4.886718 l -4.988282,-4.890625 h 4.988282 z m 0,0"
       id="path12"
       inkscape:connector-curvature="0" />
  </g>
</svg>
